<?xml version="1.0" encoding="UTF-8"?>
<svg width="24px" height="24px" viewBox="0 0 24 24" xmlns="http://www.w3.org/2000/svg" xmlns:xlink="http://www.w3.org/1999/xlink" version="1.1">
 <defs>
  <path id="shape-path" title="Rounded Rectangle" d="M 0.5 7.0 C 0.2237548828125 7.0 0.0 7.223876953125 0.0 7.5 L 0.0 7.5 C 0.0 7.7762451171875 0.2237548828125 8.0 0.5 8.0 L 23.5 8.0 C 23.776123046875 8.0 24.0 7.7762451171875 24.0 7.5 L 24.0 7.5 C 24.0 7.223876953125 23.776123046875 7.0 23.5 7.0 Z"/>
 </defs>
 <use id="rounded-rectangle" xlink:href="#shape-path" fill="#ffffff" fill-opacity="1.0" stroke="none"/>
 <defs>
  <path id="shape-path-1" title="Rounded Rectangle" d="M 0.5 16.0 C 0.2237548828125 16.0 0.0 16.223876953125 0.0 16.5 L 0.0 16.5 C 0.0 16.7762451171875 0.2237548828125 17.0 0.5 17.0 L 23.5 17.0 C 23.776123046875 17.0 24.0 16.7762451171875 24.0 16.5 L 24.0 16.5 C 24.0 16.223876953125 23.776123046875 16.0 23.5 16.0 Z"/>
 </defs>
 <use id="rounded-rectangle-1" xlink:href="#shape-path-1" fill="#ffffff" fill-opacity="1.0" stroke="none"/>
</svg>
